<?xml version="1.0" standalone="no"?><svg xmlns="http://www.w3.org/2000/svg" viewBox="0 0 1440 320"><path fill="#0099ff" fill-opacity="1" d="M0,128L26.7,128C53.3,128,107,128,160,112C213.3,96,267,64,320,80C373.3,96,427,160,480,202.7C533.3,245,587,267,640,229.3C693.3,192,747,96,800,80C853.3,64,907,128,960,160C1013.3,192,1067,192,1120,160C1173.3,128,1227,64,1280,48C1333.3,32,1387,64,1413,80L1440,96L1440,320L1413.3,320C1386.7,320,1333,320,1280,320C1226.7,320,1173,320,1120,320C1066.7,320,1013,320,960,320C906.7,320,853,320,800,320C746.7,320,693,320,640,320C586.7,320,533,320,480,320C426.7,320,373,320,320,320C266.7,320,213,320,160,320C106.7,320,53,320,27,320L0,320Z"></path></svg>