<?xml version="1.0" standalone="no"?><svg xmlns="http://www.w3.org/2000/svg" viewBox="0 0 1440 320"><path fill="#0099ff" fill-opacity="1" d="M0,256L26.7,229.3C53.3,203,107,149,160,149.3C213.3,149,267,203,320,202.7C373.3,203,427,149,480,133.3C533.3,117,587,139,640,160C693.3,181,747,203,800,208C853.3,213,907,203,960,176C1013.3,149,1067,107,1120,112C1173.3,117,1227,171,1280,197.3C1333.3,224,1387,224,1413,224L1440,224L1440,320L1413.3,320C1386.7,320,1333,320,1280,320C1226.7,320,1173,320,1120,320C1066.7,320,1013,320,960,320C906.7,320,853,320,800,320C746.7,320,693,320,640,320C586.7,320,533,320,480,320C426.7,320,373,320,320,320C266.7,320,213,320,160,320C106.7,320,53,320,27,320L0,320Z"></path></svg>